PathFileType	4	(X/Y/Z)	pose_F01_0-93.trc
DataRate	CameraRate	NumFrames	NumMarkers	Units	OrigDataRate	OrigDataStartFrame	OrigNumFrames
30	30	13	21	m	30	0	93
Frame#	Time	CHip			RHip			RKnee			RAnkle			RBigToe			RSmallToe			RHeel			LHip			LKnee			LAnkle			LBigToe			LSmallToe			LHeel			Neck			Nose			RShoulder			RElbow			RWrist			LShoulder			LElbow			LWrist			
		X1	Y1	Z1	X2	Y2	Z2	X3	Y3	Z3	X4	Y4	Z4	X5	Y5	Z5	X6	Y6	Z6	X7	Y7	Z7	X8	Y8	Z8	X9	Y9	Z9	X10	Y10	Z10	X11	Y11	Z11	X12	Y12	Z12	X13	Y13	Z13	X14	Y14	Z14	X15	Y15	Z15	X16	Y16	Z16	X17	Y17	Z17	X18	Y18	Z18	X19	Y19	Z19	X20	Y20	Z20	X21	Y21	Z21	
0	0.0	-0.24997901493059105	1.8412407288896153	-0.5511460843673255	-0.252068113688469	1.8352784851665547	-0.48373848329945945	-0.26972021978572996	1.69747166855283	-0.5221042813733211													-0.22175380152036658	1.847780359065041	-0.6213000327100536	-0.22531168662858178	1.6962617168830472	-0.6046896386000279													-0.24959321546242022	1.987909880276047	-0.5774449456310827	-0.2317632609713613	2.063438560978191	-0.552143458033631	-0.26041122873453687	1.9868810368051395	-0.48724598551230225	-0.27249367490881876	1.8954833723822642	-0.4475450067672487	-0.28043524101827466	1.8203886768604975	-0.40234546838803725	-0.21497156009267473	1.9919595493697393	-0.695300344771883	-0.21054025230649462	1.9044937774021435	-0.6873283245489391	-0.1942845805766554	1.8021443176248224	-0.6868577156108666
1	0.03333333333333333	-0.2481305772074105	1.8393039437990315	-0.5532171727887407	-0.2531985968813709	1.83379367192969	-0.4868688261212017	-0.26972021978572996	1.69747166855283	-0.5221042813733211													-0.22174460352683373	1.8452083661096248	-0.6211197358028007	-0.2261310566964149	1.695803221309125	-0.6079454282588495													-0.24761285778418224	1.989149848495551	-0.5800046832398236	-0.23168695668862183	2.0634260140390746	-0.5523201428020843	-0.2613105099121909	1.9870105148360933	-0.49037066015478414	-0.2735017847790531	1.8958772142687164	-0.45079125649927126	-0.27975872214823794	1.8201688797145383	-0.4075717190843583	-0.2140999045813302	1.9932873183003517	-0.6927410514114876	-0.2085728342741735	1.9049870080415687	-0.6896633602140269	-0.19470729868619985	1.8071921705877485	-0.6870747565399631
2	0.06666666666666667	-0.24628213948422994	1.8373671587084477	-0.555288261210156	-0.25432908007427285	1.8323088586928251	-0.48999916894294393	-0.26972021978572996	1.69747166855283	-0.5221042813733211													-0.22173540553330087	1.8426363731542086	-0.6209394388955477	-0.226950426764248	1.6953447257352028	-0.611201217917671													-0.24563250010594426	1.9903898167150549	-0.5825644208485644	-0.23161065240588236	2.063413467099958	-0.5524968275705376	-0.26220979108984493	1.987139992867047	-0.49349533479726604	-0.2745098946492875	1.8962710561551686	-0.45403750623129385	-0.2790822032782012	1.8199490825685791	-0.41279796978067934	-0.2132282490699857	1.994615087230964	-0.6901817580510922	-0.20660541624185239	1.905480238680994	-0.6919983958791146	-0.1951300167957443	1.8122400235506746	-0.6872917974690596
3	0.1	-0.2444337017610494	1.8354303736178639	-0.5573593496315712	-0.2554595632671748	1.8308240454559603	-0.49312951176468617	-0.26972021978572996	1.69747166855283	-0.5221042813733211													-0.22172620753976802	1.8400643801987924	-0.6207591419882947	-0.22776979683208112	1.6948862301612806	-0.6144570075764926													-0.24365214242770628	1.9916297849345588	-0.5851241584573053	-0.23153434812314289	2.0634009201608414	-0.552673512338991	-0.26310907226749897	1.9872694708980008	-0.49662000943974793	-0.27551800451952185	1.8966648980416208	-0.45728375596331644	-0.2784056844081645	1.81972928542262	-0.4180242204770004	-0.21235659355864117	1.9959428561615764	-0.6876224646906968	-0.20463799820953127	1.9059734693204191	-0.6943334315442024	-0.19555273490528874	1.8172878765136007	-0.687508838398156
4	0.13333333333333333	-0.24258526403786884	1.83349358852728	-0.5594304380529864	-0.2565900464600767	1.8293392322190956	-0.4962598545864284	-0.26972021978572996	1.69747166855283	-0.5221042813733211													-0.22171700954623516	1.8374923872433762	-0.6205788450810418	-0.22858916689991424	1.6944277345873584	-0.6177127972353141													-0.2416717847494683	1.9928697531540627	-0.5876838960660461	-0.23145804384040342	2.063388373221725	-0.5528501971074443	-0.264008353445153	1.9873989489289545	-0.49974468408222983	-0.2765261143897562	1.897058739928073	-0.46053000569533903	-0.27772916553812776	1.8195094882766607	-0.42325047117332143	-0.21148493804729665	1.9972706250921888	-0.6850631713303014	-0.20267058017721015	1.9064666999598443	-0.6966684672092901	-0.19597545301483318	1.8223357294765268	-0.6877258793272525
5	0.16666666666666666	-0.2407368263146883	1.8315568034366962	-0.5615015264744017	-0.25772052965297865	1.8278544189822308	-0.49939019740817064	-0.26972021978572996	1.69747166855283	-0.5221042813733211													-0.2217078115527023	1.83492039428796	-0.6203985481737888	-0.22940853696774735	1.6939692390134362	-0.6209685868941357													-0.2396914270712303	1.9941097213735666	-0.5902436336747869	-0.23138173955766395	2.0633758262826083	-0.5530268818758977	-0.26490763462280703	1.9875284269599083	-0.5028693587247117	-0.2775342242599906	1.8974525818145251	-0.4637762554273616	-0.27705264666809104	1.8192896911307015	-0.4284767218696425	-0.21061328253595213	1.9985983940228012	-0.682503877969906	-0.20070316214488904	1.9069599305992695	-0.6990035028743778	-0.19639817112437763	1.8273835824394529	-0.687942920256349
6	0.2	-0.2408162861932753	1.829261396542392	-0.5611187951918816	-0.2576422408511382	1.8269864287084723	-0.4992302187767898	-0.26972021978572996	1.69747166855283	-0.5221042813733211													-0.22175103274788632	1.8324592388108936	-0.6199941063508805	-0.23022790703558046	1.693510743439514	-0.6242243765529573													-0.24055095279506253	1.9943095179777948	-0.5932798974443577	-0.23041988674799413	2.0610308624496687	-0.5578240641316476	-0.26478628127417597	1.9889516972424346	-0.5030135890931998	-0.2756619793753789	1.896694214447777	-0.46606582453704076	-0.2768999722939571	1.8176257919158356	-0.4282979820470742	-0.209350921928922	1.9987723024415296	-0.6876650555128573	-0.20054529890369055	1.9053891740703592	-0.6988330932597504	-0.19509621106738795	1.8234040781506817	-0.6845910738959944
7	0.23333333333333334	-0.2409209825584715	1.827519060485297	-0.5611070153186584	-0.2568390130899771	1.8258483342344904	-0.5044576392065667	-0.26972021978572996	1.69747166855283	-0.5221042813733211													-0.21990051753595294	1.8307270341960014	-0.6220119072246978	-0.23057631059301267	1.692783865910725	-0.623823686361796													-0.23948653468308684	1.9946582362558836	-0.5986847282347411	-0.23141318064745542	2.0598142275062754	-0.561184166001948	-0.26794121859332026	1.9895184876475933	-0.5129151781898079	-0.2766510017252861	1.8978200883904959	-0.46931510209921284	-0.2761044476510705	1.8217216021011613	-0.4341656366421476	-0.2093172778461422	1.9986217898671583	-0.6878615806619837	-0.19839319604369157	1.9047167684258928	-0.7008679248934787	-0.19529625248221583	1.8219251367001437	-0.6841768503490381
8	0.26666666666666666	-0.23891527580892996	1.8280960826002586	-0.5632123193483974	-0.2558244383558817	1.826671816393096	-0.5013618272374266	-0.26972021978572996	1.69747166855283	-0.5221042813733211													-0.2198962979765842	1.8311280755115713	-0.62196319585583	-0.23078839096723947	1.6931508678130138	-0.6250484671916104													-0.2403330821944615	1.9947814790627267	-0.6017399826430062	-0.2302863807995685	2.060887806927496	-0.5662562911712327	-0.26601918299859917	1.989538453345536	-0.5150136106741202	-0.27664773984027574	1.8977029491248871	-0.4692920686730651	-0.27594174717270015	1.820595401220111	-0.4340864595368927	-0.21012418864392193	1.9987775069366724	-0.690855198086923	-0.19946172198895823	1.907200580137879	-0.7043907629689339	-0.19553902483711824	1.8248145159609277	-0.684273326464763
9	0.3	-0.23871876074260162	1.8264167071247328	-0.5631128191376567	-0.2556339803785024	1.8252455349015484	-0.5011826717751837	-0.26972021978572996	1.69747166855283	-0.5221042813733211													-0.2197192670954416	1.8295776727266493	-0.6219267673111923	-0.23100047134146628	1.6935178697153024	-0.6262732480214248													-0.23741963581759407	1.9946098972346282	-0.6009063224301291	-0.23033934602807415	2.0596866605620523	-0.5665074264302007	-0.26582826842542584	1.9908338063913267	-0.5149790265289239	-0.2747246240154798	1.8978490879935657	-0.47139334556545326	-0.2759198378076867	1.8204650887989502	-0.43407705922700013	-0.21011047362163535	1.998793003720416	-0.6908803057426611	-0.19939697647175883	1.9073624412711228	-0.7044419374635492	-0.195405207165693	1.8232271427860178	-0.6841623434490106
10	0.3333333333333333	-0.23878902126794427	1.8299728065684868	-0.5637117612767707	-0.253810926009723	1.8287335139133634	-0.5038221655542297	-0.26972021978572996	1.69747166855283	-0.5221042813733211													-0.2208399502598874	1.8319423683913938	-0.6253170258106364	-0.23121255171569308	1.6938848716175912	-0.6274980288512393													-0.2383024819647467	1.9947473169099628	-0.6039370820997794	-0.2282679590065126	2.0608673576985437	-0.5686123432912111	-0.2658205819657302	1.990851223728973	-0.5150757773981638	-0.2746412777572228	1.8999808966422584	-0.4716578948018071	-0.27486264766083074	1.8203436803780504	-0.43090586137809894	-0.21012165432112045	1.9988501488545243	-0.6909233340591355	-0.1993435990069805	1.9076495899768773	-0.704428765187305	-0.19520689785038994	1.8245134503496234	-0.684469079345756
11	0.36666666666666664	-0.23898100837701922	1.8291637550829716	-0.5634127329919624	-0.2539563079509927	1.82769109296098	-0.5034548305985268	-0.26972021978572996	1.69747166855283	-0.5221042813733211													-0.22085399951461218	1.832120642505855	-0.6252756608577955	-0.23167483662617705	1.693742901337603	-0.629069170863154													-0.23831756658337047	1.9947526149959847	-0.603962624149057	-0.22714816362177462	2.061112910960539	-0.5737517867635409	-0.2648703469437466	1.990570456911252	-0.5119690542683178	-0.2734617706175012	1.9007298098725007	-0.46871162188868093	-0.2745284298624024	1.8228338060981795	-0.4315055874413384	-0.21096394974970645	1.998952686676324	-0.6939969886223828	-0.2008852920161027	1.9089368073169897	-0.7107515885910428	-0.19523574531117696	1.8248092601507502	-0.6845259490251412
12	0.4	-0.24007500816213026	1.830654469201557	-0.5666683697326209	-0.25605649420210713	1.8288738738342134	-0.5016005061975627	-0.26972021978572996	1.69747166855283	-0.5221042813733211													-0.22118966189975	1.8324590138834207	-0.625337851537525	-0.23213712153666102	1.6936009310576148	-0.6306403128750686													-0.23740526736018805	1.9945628433807223	-0.6009513621488124	-0.22713138465879523	2.0611552030916567	-0.5738153036732705	-0.2638214242117147	1.9903926838498032	-0.5087368773626646	-0.2737542352797434	1.89778849919166	-0.46843911420635576	-0.27217665354264964	1.8202053003059373	-0.42969807736410137	-0.21105834441130034	1.9965882911780672	-0.693746905733258	-0.20174724171040476	1.9060089870337358	-0.7136399600555281	-0.19402458339857706	1.8254768545300692	-0.6901891377269681
